<?xml version="1.0"?>
<svg fill="#FFFFFF" xmlns="http://www.w3.org/2000/svg" viewBox="0 0 24 24" width="48px" height="48px">
    <path d="M12 2.163c3.204 0 3.584.012 4.85.07 1.366.062 2.633.332 3.608 1.307.975.975 1.245 2.242 1.307 3.608.058 1.266.069 1.646.069 4.852 0 3.204-.011 3.584-.069 4.85-.062 1.366-.332 2.633-1.307 3.608-.975.975-2.242 1.245-3.608 1.307-1.266.058-1.646.069-4.85.069s-3.584-.011-4.85-.069c-1.366-.062-2.633-.332-3.608-1.307-.975-.975-1.245-2.242-1.307-3.608-.058-1.266-.069-1.646-.069-4.85 0-3.204.011-3.584.069-4.85.062-1.366.332-2.633 1.307-3.608.975-.975 2.242-1.245 3.608-1.307 1.266-.058 1.646-.07 4.85-.07m0-2.163c-3.259 0-3.667.014-4.947.072-1.538.07-2.582.334-3.508 1.26-.926.926-1.19 1.97-1.26 3.508-.058 1.28-.072 1.688-.072 4.947s.014 3.667.072 4.947c.07 1.538.334 2.582 1.26 3.508.926.926 1.97 1.19 3.508 1.26 1.28.058 1.688.072 4.947.072s3.667-.014 4.947-.072c1.538-.07 2.582-.334 3.508-1.26.926-.926 1.19-1.97 1.26-3.508.058-1.28.072-1.688.072-4.947s-.014-3.667-.072-4.947c-.07-1.538-.334-2.582-1.26-3.508-.926-.926-1.97-1.19-3.508-1.26-1.28-.058-1.688-.072-4.947-.072zM12 5.838a6.162 6.162 0 100 12.324 6.162 6.162 0 000-12.324zm0 10.162a3.998 3.998 0 110-7.996 3.998 3.998 0 010 7.996zm6.406-11.845a1.44 1.44 0 11-2.88 0 1.44 1.44 0 012.88 0z"/>
</svg>
